<?xml version="1.0" standalone="no"?>
<!DOCTYPE svg PUBLIC "-//W3C//DTD SVG 20010904//EN"
 "http://www.w3.org/TR/2001/REC-SVG-20010904/DTD/svg10.dtd">
<svg version="1.0" xmlns="http://www.w3.org/2000/svg"
 width="1280.000000pt" height="640.000000pt" viewBox="0 0 1280.000000 640.000000"
 preserveAspectRatio="xMidYMid meet">
<metadata>
Created by potrace 1.15, written by Peter Selinger 2001-2017
</metadata>
<g transform="translate(0.000000,640.000000) scale(0.100000,-0.100000)"
fill="#ffffff" stroke="none">
<path d="M9990 6351 c-93 -21 -113 -32 -139 -74 -16 -27 -31 -36 -71 -45 -95
-22 -265 -98 -370 -165 -103 -67 -106 -68 -156 -61 -56 7 -111 -14 -148 -55
-26 -29 -34 -27 -88 17 -56 47 -96 58 -248 72 -128 12 -162 22 -184 55 -8 12
-31 30 -52 40 -32 15 -42 16 -75 5 -27 -9 -84 -11 -201 -8 l-163 6 -37 -38
c-34 -33 -38 -43 -38 -87 0 -42 4 -53 33 -80 32 -30 34 -31 167 -38 94 -5 150
-13 185 -26 65 -25 98 -24 162 3 l53 22 65 -27 c36 -15 72 -27 79 -27 13 0 26
-20 26 -41 0 -5 -7 -9 -15 -9 -8 0 -22 -11 -30 -24 -20 -31 -9 -59 44 -111 43
-41 52 -75 27 -101 -22 -22 -55 -17 -157 21 -161 60 -192 66 -381 72 -98 3
-178 8 -178 12 0 3 7 15 15 25 36 48 8 76 -77 76 -29 0 -73 7 -98 16 -45 16
-47 16 -98 -10 -31 -16 -77 -29 -114 -32 -66 -7 -91 -23 -81 -52 10 -25 24
-32 68 -32 22 0 46 -4 53 -8 17 -11 -41 -28 -144 -43 -110 -16 -508 -106 -569
-129 -27 -11 -90 -31 -140 -44 -49 -14 -148 -46 -220 -71 -71 -26 -179 -64
-240 -85 -280 -96 -455 -185 -572 -291 -66 -60 -100 -83 -138 -94 -43 -12
-152 -29 -436 -64 -36 -5 -81 -17 -99 -26 -84 -43 -175 -67 -268 -70 -54 -2
-98 -8 -107 -15 -17 -14 -20 -46 -5 -55 21 -13 456 -7 565 9 85 12 113 12 122
3 10 -10 17 -65 14 -103 -2 -23 -140 -74 -340 -124 -47 -12 -102 -30 -123 -40
-22 -10 -53 -22 -71 -25 -33 -7 -71 -19 -327 -99 -80 -25 -179 -55 -220 -67
-41 -12 -113 -34 -160 -49 -47 -15 -120 -36 -162 -45 -91 -22 -81 -27 -184 94
-120 139 -267 254 -508 396 -205 121 -269 148 -496 210 -52 15 -117 33 -145
40 -150 42 -524 52 -755 21 -179 -24 -258 -42 -406 -91 -347 -116 -690 -339
-928 -604 -85 -95 -103 -110 -137 -116 -22 -4 -52 -18 -68 -31 -37 -31 -73
-44 -123 -44 -47 0 -269 -47 -282 -60 -14 -14 -96 -239 -96 -264 0 -38 65 -84
155 -111 l40 -12 -3 -51 c-2 -32 2 -61 13 -82 16 -30 15 -35 -29 -173 -55
-172 -86 -377 -86 -572 0 -74 -7 -176 -17 -237 -20 -126 -15 -138 53 -138 64
0 140 33 222 96 41 30 76 53 79 50 3 -3 11 -108 18 -233 12 -206 17 -241 48
-359 40 -149 133 -373 208 -500 68 -116 184 -257 321 -390 171 -168 270 -235
505 -342 155 -72 279 -112 450 -149 117 -25 146 -27 338 -27 221 1 345 18 483
65 31 11 84 26 117 35 88 22 305 127 425 207 151 101 234 170 325 271 44 49
99 110 123 136 23 26 42 52 42 57 0 6 16 31 36 57 45 60 62 105 43 117 -39 25
-76 0 -134 -91 -46 -73 -208 -261 -266 -311 -167 -142 -376 -270 -548 -336
-287 -110 -644 -146 -936 -94 -249 44 -511 144 -690 265 -297 200 -493 422
-654 745 -75 148 -91 196 -132 396 -32 151 -34 171 -34 360 1 264 12 357 68
540 65 210 196 468 298 583 19 21 49 59 66 85 31 45 55 58 68 38 3 -6 -15 -34
-39 -63 -71 -84 -194 -273 -257 -393 -35 -67 -73 -162 -98 -243 -44 -144 -52
-209 -25 -198 9 3 18 6 20 6 12 0 100 151 110 190 18 66 123 280 196 397 67
110 180 248 237 292 34 26 37 26 195 26 135 0 161 -2 161 -15 0 -8 -34 -40
-75 -71 -90 -68 -238 -219 -302 -309 -25 -36 -69 -109 -97 -163 -107 -210
-156 -377 -171 -588 -9 -125 -8 -152 14 -291 21 -135 22 -166 13 -244 -12
-111 -6 -142 31 -150 15 -3 35 -8 45 -11 9 -2 28 -26 41 -51 38 -74 106 -180
170 -265 94 -124 342 -320 499 -392 109 -50 300 -111 409 -130 136 -24 400
-14 538 20 281 71 519 203 713 395 79 80 83 85 68 108 -14 23 -64 -10 -165
-108 -143 -138 -317 -242 -512 -306 -378 -123 -837 -59 -1191 168 -164 105
-463 451 -463 536 0 51 70 11 107 -62 40 -78 92 -142 209 -257 191 -187 375
-287 654 -356 106 -26 411 -25 520 1 98 24 246 70 290 92 19 9 54 26 77 37 45
22 228 155 281 204 33 31 42 63 19 63 -7 0 -49 -30 -94 -67 -169 -140 -326
-221 -530 -275 -111 -30 -129 -32 -298 -32 -164 0 -189 2 -280 27 -291 78
-516 215 -687 416 -80 94 -107 136 -95 147 3 3 41 -8 84 -24 154 -60 225 -71
501 -82 141 -6 295 -15 342 -21 89 -10 262 -21 640 -38 282 -13 707 -40 741
-47 29 -6 381 -23 629 -31 198 -6 302 9 433 62 l88 36 232 -11 c275 -12 333
-16 494 -37 145 -18 538 -14 1223 12 234 8 578 20 765 25 466 12 508 20 653
119 192 132 272 261 272 441 0 116 -54 254 -141 361 -30 36 -69 76 -86 88 -42
27 -42 48 1 136 78 160 226 466 338 700 119 249 139 290 366 755 66 135 127
267 137 293 10 27 28 55 39 63 12 8 37 26 56 39 19 13 57 40 85 60 27 19 61
35 74 35 22 0 23 -3 18 -43 -3 -24 -29 -114 -56 -200 -28 -87 -53 -174 -57
-195 -7 -41 -56 -220 -111 -407 -85 -290 -123 -426 -142 -505 -12 -47 -34
-125 -50 -175 -15 -49 -36 -124 -46 -165 -10 -41 -21 -79 -25 -83 -4 -4 -19
-3 -33 4 -23 10 -31 9 -62 -12 -19 -13 -44 -42 -56 -65 -30 -55 -21 -98 31
-149 34 -33 40 -46 40 -80 l0 -40 78 -22 c42 -11 84 -23 92 -25 23 -5 55 71
100 242 22 85 59 211 81 279 23 68 50 158 60 200 21 84 90 305 121 391 10 30
26 84 33 120 8 36 39 139 69 230 30 91 64 203 76 250 40 158 91 302 116 327
13 13 45 33 70 45 45 19 47 20 64 2 23 -24 60 -126 60 -165 0 -31 77 -242 225
-614 47 -118 85 -220 85 -226 0 -6 -51 -61 -113 -123 -206 -203 -336 -437
-408 -731 -10 -44 -22 -126 -26 -182 -5 -91 -4 -103 11 -109 33 -13 47 18 56
126 12 130 66 331 124 454 80 172 288 446 339 446 40 0 28 -32 -49 -126 -44
-53 -94 -114 -112 -137 -45 -56 -134 -225 -167 -317 -31 -89 -52 -180 -70
-310 -11 -83 -11 -96 3 -107 24 -19 29 -8 37 74 15 164 84 394 151 500 21 34
56 89 77 123 43 67 202 240 222 240 15 0 51 -74 106 -213 21 -54 52 -114 69
-134 17 -19 36 -47 41 -62 6 -14 44 -106 86 -204 59 -136 73 -181 64 -190 -9
-9 -19 -7 -46 7 -34 19 -35 19 -56 0 -48 -43 -59 -104 -22 -118 8 -4 38 -3 66
0 41 6 53 12 66 35 22 40 45 37 59 -8 9 -29 9 -40 -1 -49 -11 -10 -334 -33
-707 -49 -58 -3 -286 -14 -508 -26 -385 -20 -404 -20 -423 -4 -11 11 -19 31
-19 49 0 29 -5 33 -57 53 -99 39 -120 40 -153 8 -31 -30 -78 -127 -87 -180
-18 -113 84 -158 261 -115 67 16 157 25 360 36 149 9 330 19 401 24 72 4 188
9 259 9 71 1 201 7 290 15 319 28 711 45 769 33 36 -8 41 -5 78 31 31 32 39
47 39 77 0 54 -31 92 -83 100 -48 8 -77 21 -77 35 0 14 295 653 329 715 16 28
46 93 69 145 22 52 63 145 90 205 27 61 95 211 151 335 56 124 108 239 116
255 21 42 55 145 55 165 0 9 -8 25 -19 34 -17 16 -20 16 -35 1 -9 -9 -16 -26
-16 -37 0 -12 -56 -139 -125 -284 -69 -145 -125 -268 -125 -274 0 -7 -9 -25
-20 -40 -11 -15 -42 -79 -69 -141 -26 -63 -67 -151 -90 -197 -23 -45 -51 -106
-62 -135 -11 -29 -56 -124 -99 -212 -43 -88 -110 -229 -149 -314 -38 -84 -77
-162 -87 -172 -27 -30 -50 -9 -57 53 -3 29 -17 79 -32 112 -19 44 -23 61 -14
72 15 18 113 54 148 54 34 0 77 32 67 48 -11 18 -34 15 -134 -20 -68 -24 -97
-30 -108 -23 -22 14 -98 203 -96 240 0 17 4 48 7 70 5 34 -4 64 -65 214 l-72
174 23 18 c50 37 242 80 419 93 76 6 212 -6 351 -30 41 -7 61 10 38 30 -30 27
-199 51 -337 49 -158 -3 -271 -20 -404 -64 -54 -17 -105 -29 -113 -25 -9 3
-15 18 -15 35 0 17 -34 117 -76 223 -92 232 -145 372 -188 495 -36 102 -55
130 -94 135 -21 3 -34 20 -81 113 -31 61 -63 121 -73 135 -9 14 -39 78 -68
143 -58 133 -58 134 2 202 18 21 44 58 58 83 36 66 72 76 225 66 241 -15 314
-7 386 45 59 42 89 94 112 196 35 151 30 428 -8 581 -21 80 -81 201 -110 220
-13 8 -63 22 -111 29 -70 12 -95 21 -125 45 -33 26 -46 30 -96 29 -32 0 -92
-8 -133 -18z m150 -24 c0 -13 -188 -63 -198 -52 -12 12 24 35 57 36 20 0 52 7
71 14 46 18 70 18 70 2z m295 -111 l40 -21 7 -400 c4 -220 4 -412 1 -428 -6
-33 -83 -90 -116 -85 l-22 3 -13 470 c-13 445 -12 470 4 482 20 15 42 10 99
-21z m-1975 -140 c22 -7 40 -21 48 -40 13 -25 12 -31 -6 -55 -19 -26 -21 -26
-145 -25 -70 0 -128 2 -130 5 -2 2 -7 32 -10 66 -6 53 -4 62 11 65 31 7 196
-4 232 -16z m-306 -2 c23 -22 30 -62 18 -89 -12 -26 -51 -41 -77 -31 -34 13
-42 89 -13 123 14 18 53 16 72 -3z m2405 -159 c16 -87 18 -118 9 -245 -9 -139
-22 -190 -47 -190 -6 0 -10 93 -11 212 0 117 -3 223 -6 235 -4 13 -3 44 1 69
6 40 9 45 21 32 8 -7 23 -59 33 -113z m-1194 30 c0 -24 -52 -54 -164 -95 -75
-28 -86 -29 -100 -16 -29 30 18 59 204 124 41 15 60 10 60 -13z m415 10 c128
-23 210 -52 251 -92 35 -33 54 -78 50 -113 -4 -28 -56 -66 -114 -84 -100 -30
-219 -92 -296 -155 -69 -55 -91 -65 -91 -41 0 24 68 82 156 134 74 44 113 61
170 72 126 24 152 48 133 119 -18 63 -95 99 -109 50 -3 -11 -16 -32 -29 -48
-24 -26 -28 -27 -115 -26 -50 1 -151 -8 -225 -20 -74 -11 -140 -21 -147 -21
-10 0 -14 15 -14 53 0 90 0 90 263 89 220 -1 279 6 225 27 -48 18 -178 31
-313 31 -128 0 -155 6 -140 30 10 15 249 12 345 -5z m-924 -32 c10 -39 -7 -58
-51 -56 -49 3 -99 33 -103 61 -3 21 0 22 72 22 73 0 76 -1 82 -27z m158 -89
c9 -3 16 -16 16 -28 0 -19 -14 -28 -99 -59 -116 -43 -141 -46 -141 -16 0 20
11 26 170 97 31 13 34 14 54 6z m984 -36 c16 -16 15 -33 -3 -52 -29 -29 -65 7
-45 45 12 22 30 25 48 7z m-838 -168 c19 -47 61 -155 95 -240 35 -85 75 -193
90 -239 33 -101 30 -147 -19 -314 -19 -62 -37 -124 -40 -139 -5 -22 -22 -35
-94 -69 -112 -53 -142 -62 -148 -45 -3 8 9 50 26 95 34 87 41 95 149 152 54
28 67 41 84 79 11 24 22 75 25 111 5 74 -7 121 -65 254 -20 44 -53 125 -73
180 -21 55 -52 135 -70 179 -31 78 -34 125 -6 95 8 -8 28 -52 46 -99z m-793
-60 c118 -11 229 -40 342 -91 98 -45 273 -229 258 -272 -2 -7 -49 34 -104 90
-56 56 -116 109 -134 118 -19 8 -45 22 -59 29 -35 20 -167 55 -290 79 -89 17
-143 20 -364 19 -142 -1 -267 -4 -277 -7 -11 -4 -19 -2 -19 3 0 9 100 26 200
36 83 7 344 5 447 -4z m-137 -161 c206 -57 327 -180 375 -380 45 -194 -7 -361
-165 -520 -140 -142 -218 -174 -460 -189 -80 -5 -201 -13 -270 -19 -377 -32
-487 -39 -980 -61 -129 -5 -280 -15 -336 -20 -123 -13 -259 5 -341 46 -67 32
-157 114 -186 168 -18 34 -22 57 -22 136 0 121 22 173 108 258 105 103 404
242 713 331 76 22 185 53 242 70 57 17 165 42 240 56 75 14 202 38 282 54 134
27 449 77 530 85 109 10 200 5 270 -15z m1544 -125 c20 -19 36 -38 36 -42 0
-18 -62 -112 -80 -122 -16 -9 -22 -6 -37 17 -26 39 -100 227 -95 241 5 17 131
-50 176 -94z m-794 -469 c0 -37 -75 -193 -123 -257 -16 -20 -59 -61 -95 -91
-81 -65 -89 -70 -96 -58 -3 5 26 42 64 81 79 81 155 192 202 293 18 37 35 67
40 67 4 0 8 -16 8 -35z m-6290 -27 c61 -42 52 -48 -69 -48 -61 0 -111 3 -111
8 1 20 23 37 62 48 65 17 82 16 118 -8z m7138 -91 c19 -15 45 -69 76 -157 l27
-75 -25 -21 c-13 -12 -48 -30 -77 -39 l-53 -18 -22 26 c-35 41 -87 185 -80
222 13 68 102 103 154 62z m-7104 7 c10 -4 16 -18 16 -36 l0 -29 -117 7 c-111
6 -137 14 -130 39 5 16 197 32 231 19z m-299 -139 c0 -39 -7 -203 -15 -365 -7
-162 -14 -313 -14 -335 l-1 -40 50 3 c71 3 307 50 319 62 6 6 11 52 12 103 0
166 27 612 36 622 6 7 14 3 24 -9 17 -25 18 -114 2 -255 l-12 -104 31 -27 c17
-15 68 -40 114 -55 184 -60 509 -246 509 -291 0 -8 -2 -14 -5 -14 -12 0 -72
34 -130 74 -142 96 -460 238 -500 222 -9 -3 -15 -18 -15 -36 0 -27 6 -33 56
-55 31 -14 65 -25 75 -25 25 0 231 -103 248 -124 8 -9 19 -16 26 -16 7 0 47
-23 88 -50 46 -32 91 -53 118 -58 35 -6 44 -12 44 -27 0 -19 -11 -20 -345 -27
-190 -5 -351 -6 -357 -3 -8 2 -13 21 -13 44 0 83 -7 84 -213 46 -164 -30 -169
-32 -232 -84 -97 -82 -38 -75 -730 -81 l-620 -5 -30 -23 c-16 -12 -41 -39 -55
-58 -14 -20 -44 -59 -67 -87 -79 -99 -244 -403 -287 -532 -9 -24 -32 -106 -52
-181 -58 -224 -113 -307 -246 -374 -85 -42 -118 -49 -118 -25 0 9 28 27 68 45
143 65 212 168 271 405 42 168 96 312 158 424 53 95 134 219 176 269 21 24 37
48 37 53 0 16 160 178 255 257 312 262 763 442 1111 442 161 0 158 -3 165 155
7 152 22 218 47 213 14 -3 17 -15 17 -73z m3203 -118 c22 -55 22 -60 7 -77 -9
-10 -49 -28 -88 -40 -40 -12 -132 -42 -205 -67 -72 -24 -138 -43 -144 -41 -25
9 41 39 168 79 70 22 130 42 133 44 13 13 -49 0 -184 -40 -141 -41 -151 -43
-167 -27 -10 9 -20 31 -24 48 -5 28 -3 32 33 47 21 9 74 26 118 38 44 12 127
39 185 60 58 21 114 37 125 36 14 -1 27 -19 43 -60z m-548 -133 c19 -49 13
-61 -44 -88 -29 -14 -100 -39 -158 -55 -118 -33 -173 -49 -763 -226 l-420
-126 -17 22 c-21 25 -23 62 -5 77 14 12 93 37 332 107 88 25 194 57 235 70 41
14 161 52 265 84 105 33 260 82 345 109 184 59 216 63 230 26z m3590 -10 c0
-20 -15 -41 -54 -78 -30 -28 -62 -66 -71 -84 -25 -51 -49 -40 -53 24 -4 65 20
96 102 135 34 16 64 29 69 29 4 0 7 -12 7 -26z m-240 -129 c0 -51 6 -77 26
-117 l26 -51 -18 -54 c-15 -44 -16 -58 -6 -86 20 -56 26 -38 -90 -287 -20 -41
-39 -86 -43 -100 -4 -14 -27 -59 -51 -101 -24 -42 -44 -79 -44 -82 0 -4 -42
-96 -93 -204 -52 -109 -106 -229 -120 -268 -15 -38 -42 -97 -61 -130 l-33 -60
-61 -3 c-51 -2 -64 0 -82 18 -20 20 -21 28 -16 133 10 173 10 188 8 252 -1 33
1 88 4 123 4 42 1 84 -10 125 -10 41 -17 126 -19 250 -5 223 -7 219 95 205 78
-11 162 -49 211 -96 47 -45 101 -148 123 -236 9 -36 22 -73 29 -83 13 -17 14
-16 25 12 42 107 -66 321 -212 422 -106 73 -124 77 -389 69 -141 -4 -236 -3
-252 3 -32 13 -57 59 -57 107 0 31 8 44 53 88 29 28 62 64 72 79 10 15 30 34
46 42 35 18 176 35 299 35 52 0 136 5 185 11 50 5 144 14 210 19 66 5 138 14
160 19 85 19 85 19 85 -54z m-2508 10 c42 -28 181 -80 243 -90 54 -9 95 -25
96 -39 1 -6 2 -52 3 -101 1 -68 5 -98 19 -118 23 -35 22 -51 -12 -190 -34
-136 -49 -159 -100 -155 -34 3 -37 7 -60 63 -49 126 -130 281 -162 312 -33 31
-38 32 -146 39 -110 7 -112 7 -144 40 -29 30 -39 34 -83 34 -53 0 -129 -29
-188 -71 -29 -21 -30 -25 -25 -71 6 -46 4 -50 -33 -89 -49 -52 -75 -50 -75 6
0 33 -4 41 -22 43 -34 5 -46 -50 -41 -187 4 -106 7 -121 33 -166 41 -72 110
-214 124 -256 6 -20 27 -51 46 -68 19 -17 35 -40 35 -51 0 -17 -7 -20 -39 -20
-47 0 -65 19 -110 114 -35 76 -105 290 -122 374 -17 90 -8 234 21 299 49 114
234 248 425 307 235 74 263 78 317 41z m-832 5 c0 -5 -15 -13 -32 -18 -135
-39 -519 -157 -588 -180 -47 -17 -137 -44 -200 -62 -63 -17 -205 -60 -315 -96
-202 -65 -235 -72 -235 -54 0 6 5 10 12 10 12 0 181 53 608 190 180 58 547
170 680 208 46 13 70 14 70 2z m2310 -56 c0 -9 -40 -58 -89 -108 -49 -50 -100
-110 -115 -133 -36 -59 -69 -73 -195 -83 -245 -20 -402 -93 -544 -254 -53 -60
-62 -66 -96 -66 -68 0 -70 13 -22 173 23 78 49 160 57 182 16 46 19 151 5 188
-17 44 3 56 109 63 93 6 96 6 127 -20 31 -26 33 -27 140 -20 134 8 180 18 188
44 4 11 12 20 18 21 7 1 71 7 142 14 201 19 275 19 275 -1z m-2130 -101 c0 -6
-70 -86 -151 -172 -40 -43 -41 -45 -36 -100 14 -140 27 -224 51 -321 22 -91
25 -123 22 -243 -3 -146 -6 -157 -52 -157 -32 0 -121 -49 -149 -82 l-25 -30 0
-222 0 -223 54 -54 54 -54 12 -142 c13 -158 8 -182 -50 -217 -26 -15 -43 -14
-255 9 -125 14 -231 25 -236 25 -14 0 -11 65 7 135 24 95 44 83 44 -25 0 -74
18 -90 104 -90 l59 0 -5 181 c-4 164 -3 182 14 204 16 21 18 44 18 208 0 200
-7 277 -24 277 -28 1 -39 25 -62 140 -34 173 -49 230 -94 350 -21 58 -41 116
-45 129 -4 13 -25 62 -46 109 -40 87 -48 125 -27 138 16 10 195 64 383 114 83
23 206 59 275 80 124 39 160 46 160 33z m-4720 -32 c0 -5 -16 -31 -35 -57 -80
-113 -177 -285 -234 -416 -19 -43 -36 -68 -45 -68 -9 0 -16 8 -16 18 1 56 196
416 265 489 39 40 65 54 65 34z m5800 -111 c0 -11 -6 -20 -14 -20 -18 0 -29
16 -21 30 11 18 35 11 35 -10z m-2725 -42 l18 -51 -22 -18 c-24 -20 -45 -16
-78 14 -30 27 -29 45 4 79 39 41 56 36 78 -24z m1949 43 c11 -18 -5 -36 -47
-53 -55 -23 -90 -24 -85 -1 7 39 115 83 132 54z m-5454 -20 c0 -38 -50 -178
-70 -196 -20 -18 -20 -17 -20 7 0 14 11 50 24 80 14 31 28 72 31 92 8 38 35
51 35 17z m5610 -39 c0 -5 -8 -16 -17 -25 -24 -21 -346 -177 -366 -177 -39 0
-20 23 67 84 107 74 145 92 231 111 74 16 85 17 85 7z m140 -14 c24 -26 60
-91 60 -109 0 -15 -40 -59 -53 -59 -14 0 -410 -200 -429 -218 -22 -19 -23 -32
-3 -32 18 0 233 106 387 191 59 33 111 59 117 59 5 0 21 -25 36 -55 19 -42 23
-60 16 -74 -10 -18 -141 -91 -191 -106 -13 -4 -96 -46 -182 -92 -122 -66 -164
-84 -183 -79 -27 7 -43 34 -94 157 -17 42 -43 87 -56 99 -45 43 -35 53 127
119 42 18 82 39 89 47 6 8 22 14 34 14 12 0 28 7 35 15 6 8 55 35 108 61 54
26 108 55 121 65 30 24 36 24 61 -3z m-1641 -108 c59 -65 174 -333 221 -514
15 -61 38 -172 50 -246 l21 -135 -25 -55 c-14 -30 -26 -67 -26 -82 0 -15 18
-61 40 -103 35 -67 40 -84 40 -144 0 -37 -2 -70 -5 -73 -9 -8 -144 45 -192 75
-46 29 -82 34 -101 15 -7 -7 -12 -42 -12 -88 0 -69 -3 -79 -25 -100 -21 -20
-40 -24 -137 -32 -224 -17 -300 -27 -325 -43 -47 -31 -14 -39 109 -25 62 7
188 15 280 19 146 6 170 9 188 26 18 16 21 28 17 58 l-5 39 51 -7 c68 -10 89
-21 85 -48 -4 -29 -32 -28 -36 1 -3 18 -9 23 -29 20 -20 -2 -29 -12 -40 -43
-21 -61 -34 -67 -143 -63 -90 3 -95 2 -98 -18 -3 -18 3 -22 45 -27 26 -3 86
-11 132 -17 79 -10 86 -10 112 9 16 12 31 21 34 21 11 0 4 -29 -12 -49 l-18
-22 -415 50 c-394 47 -419 51 -502 84 -102 41 -191 88 -233 121 -27 23 -29 26
-14 41 10 10 45 19 102 25 48 5 91 11 96 15 5 3 52 10 103 15 51 5 147 16 213
25 66 8 219 24 340 36 197 18 350 40 362 53 3 3 -7 27 -22 55 -25 44 -27 57
-21 107 4 37 3 61 -5 70 -15 18 -102 18 -254 -1 -66 -8 -178 -20 -250 -26 -71
-5 -195 -21 -274 -35 -79 -13 -211 -29 -293 -36 -146 -11 -149 -11 -178 10
-22 16 -43 22 -85 22 -51 0 -56 2 -67 28 -6 15 -11 74 -11 132 -1 128 17 201
79 328 41 83 57 102 152 192 131 122 240 182 432 234 69 18 188 54 265 79 215
70 242 73 284 27z m3105 8 c14 -19 16 -76 16 -416 0 -439 4 -415 -72 -390
l-43 13 3 55 c3 49 0 58 -22 79 -14 14 -26 29 -26 34 0 5 20 31 44 58 24 26
51 64 60 83 21 44 21 108 0 149 -9 17 -24 54 -33 81 -20 60 -47 75 -85 45 -14
-11 -26 -26 -26 -33 0 -7 23 -32 51 -56 60 -50 69 -70 62 -134 -5 -42 -13 -55
-70 -112 -53 -52 -63 -67 -53 -79 9 -11 6 -19 -14 -37 -15 -13 -41 -38 -59
-55 -38 -38 -47 -40 -47 -15 0 27 29 62 50 62 26 0 45 36 29 56 -16 20 -31 18
-102 -14 -77 -36 -91 -52 -83 -95 3 -18 3 -36 0 -40 -13 -13 -34 15 -34 45 0
68 -88 101 -157 58 -45 -27 -56 -54 -49 -112 6 -41 4 -49 -11 -54 -53 -17
-168 -79 -218 -119 -32 -25 -67 -45 -77 -45 -29 0 -31 42 -8 125 15 55 20 91
15 121 -6 41 -5 43 37 73 24 16 133 119 243 227 207 204 220 213 303 214 l32
0 0 58 c0 57 2 60 55 120 54 59 57 61 113 65 150 9 160 8 176 -15z m371 10 c2
-7 6 -132 9 -278 3 -146 9 -381 12 -522 l6 -258 -33 1 c-62 2 -88 14 -111 49
-13 19 -59 62 -103 95 -55 42 -81 69 -86 90 -5 16 -11 208 -15 426 -7 385 -7
397 12 402 10 2 83 5 162 6 106 1 144 -2 147 -11z m-750 -29 c13 -20 -6 -58
-53 -107 -72 -73 -85 -79 -210 -92 -171 -16 -184 -6 -99 76 37 37 76 61 137
86 47 20 94 38 105 41 38 9 114 7 120 -4z m-4625 -49 c0 -21 -15 -27 -25 -10
-7 12 2 30 16 30 5 0 9 -9 9 -20z m8071 -285 c48 -126 88 -236 89 -242 0 -15
-61 -48 -137 -74 -72 -25 -77 -20 -144 151 -20 52 -56 142 -79 198 -23 57 -39
107 -35 110 13 14 190 91 204 89 8 -1 49 -94 102 -232z m-8613 203 c-3 -7 -40
-30 -84 -51 -95 -48 -221 -144 -325 -249 -181 -183 -289 -374 -345 -615 -35
-147 -44 -413 -20 -552 17 -96 13 -120 -18 -108 -30 12 -45 55 -61 182 -33
255 14 524 135 782 66 139 144 249 264 369 95 94 283 234 331 247 43 10 127 7
123 -5z m539 -8 c18 -11 35 -31 39 -46 4 -15 3 -104 -2 -198 -5 -103 -5 -189
0 -217 6 -28 6 -81 0 -135 l-9 -89 -70 -6 c-167 -16 -312 -102 -404 -240 -71
-106 -117 -339 -67 -339 9 0 16 28 24 92 15 122 52 196 141 287 37 37 87 79
112 94 87 51 242 73 259 37 4 -8 15 -30 25 -49 21 -40 16 -120 -10 -171 -9
-18 -52 -70 -96 -117 -75 -79 -79 -86 -79 -129 0 -40 5 -51 39 -85 49 -49 90
-52 147 -11 61 45 67 56 62 114 -5 45 -11 57 -43 85 l-38 33 28 42 c22 32 30
58 33 103 4 77 19 115 43 115 25 0 24 -15 -1 -40 -30 -30 -25 -64 12 -94 31
-24 33 -24 61 -8 16 9 36 28 45 41 15 21 15 26 -1 53 -9 16 -17 36 -17 44 0
12 4 12 24 -1 20 -14 23 -22 19 -59 -7 -58 12 -116 38 -116 13 0 19 7 19 24 0
22 6 26 48 31 100 14 137 41 62 47 -36 3 -46 9 -72 45 -29 40 -30 44 -19 87 6
25 11 78 11 119 0 40 3 76 6 80 4 3 24 -3 46 -14 44 -22 58 -18 58 16 0 15
-15 36 -42 59 -48 41 -47 34 -25 278 15 155 27 183 82 194 55 10 101 -3 129
-37 35 -41 33 -85 -4 -159 -78 -154 -130 -340 -130 -463 0 -160 66 -394 142
-505 76 -110 228 -233 356 -287 105 -44 229 -75 298 -75 45 0 54 -3 54 -18 0
-41 -47 -55 -89 -26 -20 14 -28 15 -61 4 -30 -10 -65 -10 -162 -2 -68 6 -167
14 -221 18 -109 8 -118 14 -97 65 14 33 44 49 89 49 15 0 36 7 47 15 16 13 17
16 4 25 -19 12 -214 13 -300 0 -36 -5 -159 -17 -274 -25 -115 -9 -241 -20
-280 -26 -252 -34 -424 -40 -464 -15 -14 8 10 87 39 125 26 36 20 73 -16 97
-23 15 -27 15 -57 -3 -33 -19 -33 -20 -38 -111 -4 -67 -9 -96 -20 -102 -22
-14 -124 -12 -144 3 -29 21 -56 163 -56 292 0 103 3 118 40 224 45 128 69 173
134 249 72 83 154 149 241 192 90 44 216 80 284 80 63 0 78 11 63 44 -10 23
-18 26 -59 26 -72 0 -197 -37 -308 -90 -176 -86 -290 -202 -384 -395 -78 -159
-99 -334 -61 -503 13 -55 20 -107 17 -116 -5 -12 -20 -16 -61 -16 -54 0 -155
-17 -268 -46 -98 -24 -105 -22 -123 39 -29 98 -38 188 -32 342 7 175 28 282
81 410 86 208 164 321 328 481 119 115 212 180 352 242 127 56 148 60 336 61
138 1 159 -1 187 -19z m4631 -23 c2 -12 -3 -17 -17 -17 -23 0 -24 1 -15 25 8
19 28 15 32 -8z m-4320 -63 c22 -4 22 -7 22 -163 0 -132 -3 -162 -16 -175 -21
-21 -171 -23 -199 -2 -21 15 -22 26 -13 215 6 139 9 142 112 135 39 -3 81 -7
94 -10z m4122 -3 c0 -36 -200 -232 -280 -275 -78 -41 -125 -81 -140 -116 -16
-37 -37 -39 -44 -2 -8 44 -10 286 -2 305 7 14 21 17 78 17 65 0 72 2 98 30 26
27 37 31 117 39 124 12 173 12 173 2z m-732 -65 c29 -34 50 -91 37 -104 -3 -3
-16 0 -28 8 -49 32 -114 59 -140 60 -88 1 -174 -52 -223 -136 -23 -39 -26 -53
-22 -108 3 -53 10 -73 41 -119 l36 -56 -1 -108 c-2 -99 0 -112 25 -159 24 -48
77 -104 98 -104 5 0 9 25 9 55 0 50 -5 63 -42 116 -43 60 -43 61 -42 142 2
120 18 259 32 284 28 51 112 35 122 -22 5 -30 4 -47 -21 -202 -10 -64 -10 -87
-1 -108 17 -37 38 -26 34 18 -3 32 1 38 43 67 49 34 107 114 131 182 20 56 18
178 -3 222 -13 29 -14 38 -3 51 13 15 76 21 96 7 7 -4 13 -63 16 -162 l5 -155
-34 -71 c-19 -39 -37 -91 -40 -115 -8 -62 -29 -99 -56 -99 -57 0 -107 -78
-106 -165 0 -42 6 -58 38 -104 38 -52 39 -54 25 -87 -27 -65 -10 -96 57 -109
32 -6 39 -3 58 22 14 17 35 30 54 33 26 4 34 12 42 38 9 31 28 42 40 23 3 -6
10 -36 16 -68 10 -55 67 -159 122 -220 35 -39 -10 -67 -126 -77 -97 -9 -127 5
-127 57 0 54 -9 57 -182 57 l-158 0 -44 -40 c-54 -50 -86 -52 -174 -10 -41 19
-80 30 -108 30 -31 0 -46 5 -52 18 -7 13 -22 411 -26 711 -1 62 2 65 87 81 34
7 57 17 57 24 0 7 -15 33 -33 57 -39 50 -67 102 -67 121 0 13 174 125 267 172
46 23 216 85 234 86 4 0 20 -15 37 -34z m-47 -101 c21 -14 51 -43 65 -65 23
-35 26 -47 22 -105 -3 -52 -10 -73 -34 -107 -32 -46 -74 -64 -74 -31 0 10 11
42 25 71 36 78 33 107 -15 153 -70 67 -147 61 -205 -15 -25 -33 -27 -42 -23
-111 3 -64 1 -75 -13 -75 -11 0 -22 19 -34 60 -18 58 -18 63 -1 115 21 66 59
105 128 127 65 22 109 17 159 -17z m-3381 -250 l30 -16 0 -117 c0 -64 -4 -123
-9 -131 -13 -20 -200 -5 -208 17 -9 22 13 215 26 241 10 18 21 21 72 21 34 0
73 -7 89 -15z m7886 -47 c9 -17 43 -102 76 -187 33 -86 65 -168 71 -183 13
-33 -1 -54 -44 -63 -16 -4 -31 -11 -34 -16 -12 -18 -41 -8 -57 19 -22 38 -158
377 -158 395 0 19 22 36 67 53 54 19 61 18 79 -18z m-4178 -5 c2 -9 -8 -13
-32 -13 -34 0 -44 8 -29 24 11 11 56 2 61 -11z m870 -37 c4 -19 -39 -41 -62
-33 -23 9 -21 64 2 70 22 5 56 -15 60 -37z m-360 18 c27 -19 30 -54 3 -54 -10
0 -32 -3 -49 -6 -25 -5 -31 -2 -37 16 -4 14 -1 28 11 41 21 23 42 24 72 3z
m-1424 -36 c9 -12 15 -85 20 -235 3 -120 9 -280 12 -355 4 -75 4 -144 0 -154
-13 -33 -39 11 -72 119 l-30 102 -120 3 c-108 2 -121 5 -132 23 -12 18 -16
176 -12 462 0 46 42 57 193 55 109 -3 131 -6 141 -20z m921 -10 l26 -23 -25
-95 c-14 -52 -26 -98 -26 -101 0 -4 14 -12 30 -19 34 -14 36 -25 15 -72 -8
-18 -19 -52 -25 -76 -13 -51 -25 -57 -71 -38 -19 8 -40 12 -46 8 -6 -4 -19
-38 -29 -77 -21 -77 -44 -94 -77 -57 -16 17 -16 22 -2 55 10 23 15 69 15 127
0 83 3 96 35 159 19 38 39 100 46 137 7 38 19 75 27 82 25 19 78 14 107 -10z
m940 -53 c135 -45 178 -68 246 -135 76 -75 93 -119 94 -240 0 -67 -4 -81 -33
-131 -39 -69 -89 -115 -175 -163 -109 -61 -180 -78 -361 -83 -139 -5 -173 -3
-270 17 -248 51 -380 157 -402 322 -12 91 65 249 151 308 128 88 326 132 565
125 89 -2 152 -9 185 -20z m-2646 -146 c58 -20 65 -86 12 -114 -24 -12 -31
-12 -57 1 -50 26 -58 63 -22 101 25 27 25 27 67 12z m-2074 -63 c16 -12 17
-16 6 -30 -15 -18 -56 -21 -66 -5 -7 10 21 49 35 49 3 0 15 -6 25 -14z m135
-21 c0 -8 -4 -15 -9 -15 -5 0 -11 7 -15 15 -3 9 0 15 9 15 8 0 15 -7 15 -15z
m485 -24 c9 -30 25 -184 19 -190 -3 -3 -13 -1 -22 5 -23 14 -105 172 -98 190
4 9 21 14 50 14 35 0 46 -4 51 -19z m4518 -104 c2 -65 -2 -90 -13 -101 -31
-32 -39 -6 -33 112 6 112 6 113 25 94 16 -15 20 -35 21 -105z m175 63 c62 -16
134 -42 160 -57 67 -40 181 -151 220 -216 41 -68 82 -186 82 -235 0 -97 -56
-222 -138 -312 -69 -77 -116 -109 -222 -150 -82 -31 -94 -33 -320 -46 -129 -7
-397 -18 -595 -23 -198 -6 -481 -17 -630 -25 -445 -24 -654 -29 -717 -17 -32
5 -158 15 -280 22 -295 15 -302 16 -306 55 -5 54 8 57 195 45 92 -6 213 -16
268 -22 72 -7 161 -7 315 1 118 6 384 15 590 20 910 25 1073 30 1200 40 161
12 186 17 267 58 82 42 121 78 174 159 l43 66 0 108 c0 106 -1 108 -40 175
-25 44 -57 82 -89 107 -64 49 -176 103 -243 117 -29 7 -59 18 -67 27 -25 25
-15 133 13 133 4 0 58 -13 120 -30z m2802 -90 c9 -16 6 -25 -14 -45 -29 -29
-39 -31 -60 -9 -23 22 -20 60 6 78 24 17 51 8 68 -24z m-4422 -52 c-4 -29 -38
-38 -38 -10 0 19 11 29 33 31 5 1 7 -9 5 -21z m4717 -53 c34 -33 32 -67 -6
-99 -17 -14 -34 -26 -39 -26 -38 0 -74 54 -64 95 7 29 39 55 67 55 10 0 29
-11 42 -25z m-8602 4 c14 -6 31 -22 38 -36 29 -53 -44 -113 -99 -82 -21 12
-28 23 -30 56 -2 33 1 44 20 57 27 19 39 20 71 5z m5554 -29 c139 -69 223
-186 223 -313 0 -43 -6 -80 -16 -100 -55 -108 -163 -201 -272 -232 -73 -22
-244 -35 -255 -21 -7 10 -1 90 9 127 2 8 -2 24 -10 34 -14 19 -16 19 -111 -8
-111 -32 -101 -31 -815 -48 -633 -14 -620 -14 -631 -30 -11 -18 -11 -27 1 -68
6 -22 6 -39 0 -46 -15 -18 -306 -27 -462 -16 -73 6 -276 20 -450 33 -175 12
-315 24 -312 27 3 4 126 6 272 6 l267 0 90 40 90 40 210 0 c147 0 217 4 232
13 33 18 301 31 878 42 410 7 535 13 593 25 154 34 358 159 428 263 90 133 94
143 84 162 -5 10 -18 21 -29 25 -10 3 -26 14 -36 25 -34 37 -60 26 -118 -52
-77 -105 -153 -170 -234 -203 -138 -55 -213 -65 -549 -75 -171 -4 -449 -14
-617 -21 -295 -12 -307 -12 -348 7 -24 10 -46 18 -49 17 -3 -1 -17 7 -30 18
l-25 20 120 -5 c66 -3 166 -9 222 -12 138 -8 205 1 244 33 l30 26 72 -22 c125
-36 199 -42 429 -30 303 14 436 33 470 67 7 7 19 12 28 12 46 0 192 131 226
204 17 34 17 37 -2 57 l-19 22 55 -6 c30 -4 83 -20 117 -37z m-3587 21 c0 -6
-4 -13 -10 -16 -5 -3 -10 1 -10 9 0 9 5 16 10 16 6 0 10 -4 10 -9z m992 -81
c10 -19 28 -60 42 -92 30 -71 61 -91 146 -99 41 -4 0 -6 -114 -7 -223 -2 -216
-7 -216 123 0 59 4 95 12 103 8 8 33 12 63 10 46 -3 51 -6 67 -38z m-182 -107
c0 -93 -2 -105 -14 -93 -9 10 -17 49 -22 108 -6 89 -6 92 15 92 20 0 21 -5 21
-107z m3568 61 c31 -22 30 -78 -2 -99 -59 -39 -117 44 -66 95 24 24 38 25 68
4z m165 -16 l21 -28 -21 -27 c-38 -53 -93 -34 -93 32 0 59 56 72 93 23z
m-2718 -98 c13 -20 -61 -38 -170 -42 -107 -3 -110 -2 -113 19 -3 20 2 22 55
26 130 8 222 7 228 -3z m-3165 -111 c0 -54 -32 -59 -276 -48 -230 11 -267 16
-244 29 21 11 192 30 287 31 43 0 101 4 128 9 98 15 105 14 105 -21z m2258 1
c65 -40 91 -125 57 -189 -49 -96 -158 -108 -234 -27 -19 20 -26 40 -29 87 -4
53 -2 63 19 86 59 64 127 80 187 43z m517 -10 c0 -8 -16 -23 -35 -33 -30 -16
-52 -18 -165 -13 -122 5 -235 26 -235 45 0 19 26 21 224 19 180 -3 211 -5 211
-18z m205 -34 c36 -9 77 -22 92 -28 27 -10 46 -43 33 -56 -3 -3 -41 6 -83 21
-93 33 -175 35 -247 8 -28 -10 -136 -53 -242 -95 -196 -78 -213 -83 -213 -67
0 23 63 54 213 105 222 75 229 77 267 109 38 33 66 33 180 3z m-3705 -56 c330
-22 690 -45 800 -50 110 -6 238 -15 285 -20 47 -5 180 -14 295 -20 116 -6 217
-12 225 -15 8 -3 119 -9 245 -14 127 -6 266 -17 311 -26 102 -19 218 -58 264
-88 58 -39 99 -48 240 -56 74 -3 141 -10 148 -14 18 -12 15 -52 -7 -71 -17
-16 -28 -16 -93 -7 -155 21 -264 23 -327 6 -50 -15 -94 -16 -293 -12 -128 3
-289 10 -358 15 -122 10 -222 17 -695 47 -126 9 -300 20 -385 26 -85 5 -281
14 -435 19 -154 5 -379 16 -500 25 -121 9 -279 20 -351 24 -71 4 -135 10 -140
14 -6 3 -42 13 -80 20 -38 8 -112 34 -163 57 -82 37 -106 43 -190 49 l-96 6
-3 38 -3 37 101 0 c60 0 123 6 153 15 102 29 239 45 347 40 58 -3 375 -23 705
-45z m1735 4 c41 -8 102 -14 135 -14 33 0 92 -6 130 -14 73 -15 311 -36 408
-36 49 0 59 -3 73 -25 31 -48 -7 -104 -62 -91 -14 4 -41 22 -62 40 -54 50
-161 71 -531 106 -335 32 -364 37 -355 52 8 12 158 2 264 -18z m1968 -54 c19
-31 -8 -70 -49 -70 -12 0 -49 37 -49 49 0 39 77 55 98 21z m-1035 -55 c20 -3
37 -10 37 -15 0 -13 -17 -12 -80 1 -52 11 -71 32 -22 24 15 -2 44 -7 65 -10z"/>
<path d="M7787 5345 c-347 -52 -722 -131 -907 -191 -58 -18 -176 -54 -264 -79
-87 -25 -198 -61 -247 -80 -49 -20 -119 -46 -155 -60 -105 -40 -177 -82 -237
-141 -71 -69 -92 -129 -85 -241 4 -58 11 -82 34 -119 49 -79 165 -144 298
-165 77 -13 328 0 1176 60 742 53 739 53 875 122 117 60 207 175 261 333 54
157 10 350 -103 457 -48 46 -145 96 -220 114 -85 21 -246 17 -426 -10z m405
-24 c105 -27 163 -59 231 -128 136 -139 143 -344 19 -535 -57 -87 -103 -128
-205 -185 -68 -38 -147 -64 -147 -49 0 3 28 20 62 37 182 92 297 233 306 376
4 61 4 63 -24 73 -44 17 -90 4 -111 -30 -17 -29 -43 -41 -43 -20 0 6 9 29 21
51 27 54 19 156 -18 209 l-25 35 7 -42 c7 -42 6 -43 -23 -43 -32 0 -42 -14
-42 -60 0 -36 -28 -97 -48 -105 -26 -10 -25 3 2 35 14 17 26 35 26 40 0 15
-30 32 -46 26 -34 -13 -54 3 -54 43 0 44 -13 60 -43 54 -26 -5 -72 -67 -62
-82 3 -6 19 -11 34 -11 15 0 36 -9 45 -19 15 -16 16 -25 6 -61 -10 -37 -14
-41 -38 -38 -34 4 -65 49 -81 122 -10 44 -17 56 -31 56 -37 0 -51 -64 -29
-131 19 -54 57 -98 107 -122 44 -21 45 -22 19 -25 -92 -11 -184 187 -133 286
23 45 20 61 -6 34 -21 -20 -23 -32 -23 -125 l0 -102 -147 -1 c-121 0 -148 3
-153 15 -9 23 16 40 106 69 l84 27 20 55 c11 31 31 72 43 93 41 65 33 69 -135
64 -160 -5 -316 -19 -403 -37 -46 -9 -251 -47 -352 -65 -16 -2 -28 0 -28 5 0
6 10 10 23 10 12 0 31 6 42 14 11 7 34 16 50 19 17 3 64 15 105 26 41 10 118
26 170 36 52 9 163 29 245 45 83 16 191 34 240 40 50 7 117 18 150 25 91 19
201 18 287 -4z m89 -381 c-20 -75 -116 -161 -178 -159 -21 1 -23 3 -8 6 11 3
24 9 30 14 5 5 14 9 21 9 18 0 94 70 110 102 8 15 14 55 15 90 l1 63 11 -40
c7 -28 7 -52 -2 -85z m-957 33 c116 -59 164 -248 97 -389 -43 -91 -80 -128
-169 -165 -72 -30 -88 -33 -242 -40 -91 -5 -201 -13 -246 -19 -44 -5 -176 -10
-292 -10 -236 0 -261 6 -316 70 -23 28 -26 40 -26 114 0 72 3 87 26 123 33 50
88 86 173 113 36 12 77 27 91 34 91 49 570 172 730 189 55 6 142 -4 174 -20z"/>
<path d="M8040 5236 c0 -3 11 -17 24 -31 24 -26 25 -26 35 -6 18 32 13 41 -24
41 -19 0 -35 -2 -35 -4z"/>
<path d="M7960 5202 c0 -4 5 -13 11 -19 8 -8 8 -17 -1 -33 -10 -18 -9 -24 1
-31 20 -13 35 -11 49 6 16 19 3 55 -21 55 -10 0 -19 7 -19 15 0 8 -4 15 -10
15 -5 0 -10 -4 -10 -8z"/>
<path d="M8130 5155 c-17 -21 -4 -35 35 -35 20 0 35 -6 39 -15 8 -23 23 -18
28 10 5 22 2 25 -23 25 -19 0 -29 5 -29 15 0 19 -34 19 -50 0z"/>
<path d="M7060 4950 c-52 -7 -216 -50 -345 -91 -33 -10 -116 -35 -185 -54 -69
-20 -152 -49 -185 -64 -33 -16 -70 -32 -83 -36 -30 -9 -102 -119 -102 -154 1
-38 34 -104 64 -129 48 -37 91 -45 215 -39 275 15 466 27 609 41 223 21 272
49 328 185 27 65 32 172 10 224 -17 41 -71 95 -113 113 -34 15 -121 16 -213 4z
m192 -39 c50 -22 71 -43 93 -94 48 -114 -16 -272 -134 -331 -56 -29 -245 -56
-389 -56 -54 0 -175 -7 -269 -15 -95 -7 -190 -11 -210 -8 -190 29 -199 204
-16 297 45 22 290 103 338 111 22 4 64 15 93 26 29 10 92 28 140 38 48 11 103
26 122 34 52 23 178 22 232 -2z"/>
<path d="M7040 4870 c-47 -9 -123 -30 -170 -44 -47 -15 -163 -47 -258 -71
-195 -49 -299 -93 -342 -142 -53 -60 -35 -128 44 -164 49 -22 98 -23 231 -4
55 8 145 15 200 15 131 0 393 33 439 55 47 23 113 98 126 144 27 96 1 172 -70
209 -52 26 -85 26 -200 2z"/>
<path d="M9745 4668 c-31 -16 -45 -39 -45 -70 0 -35 42 -78 77 -78 36 0 73 42
73 85 0 29 -6 39 -32 55 -38 23 -45 24 -73 8z m60 -28 c7 -24 -18 -70 -38 -70
-21 0 -37 22 -37 50 0 34 7 40 41 40 19 0 30 -6 34 -20z"/>
<path d="M2137 4229 c-118 -10 -318 -53 -425 -90 -180 -64 -425 -204 -599
-343 -83 -67 -92 -82 -58 -98 34 -15 66 0 160 76 142 116 339 222 518 279 236
75 303 89 452 94 77 3 146 10 153 15 17 15 15 65 -4 72 -19 7 -79 6 -197 -5z"/>
<path d="M2115 4116 c-22 -8 -70 -16 -106 -19 -75 -7 -279 -70 -396 -123 -99
-45 -238 -123 -330 -187 -83 -56 -94 -82 -39 -93 41 -7 120 25 197 81 181 130
505 234 809 261 41 3 81 11 88 16 17 15 15 42 -6 61 -23 21 -157 23 -217 3z"/>
<path d="M2825 4017 c-13 -49 0 -60 112 -101 60 -21 124 -49 143 -61 92 -58
110 -65 176 -65 45 0 64 4 64 13 0 33 -365 225 -443 234 -43 5 -46 4 -52 -20z"/>
<path d="M2827 3843 c-15 -14 -6 -53 13 -63 12 -6 42 -10 68 -8 67 4 68 29 3
57 -52 22 -73 26 -84 14z"/>
<path d="M2200 3794 c-14 -2 -59 -9 -100 -15 -81 -11 -207 -46 -227 -62 -7 -5
-10 -13 -7 -18 8 -14 72 -10 168 11 50 11 109 20 132 20 51 0 101 17 108 37
12 31 -5 37 -74 27z"/>
<path d="M4955 3919 c-38 -11 -110 -33 -160 -49 -49 -16 -127 -38 -172 -50
-115 -29 -133 -38 -133 -70 0 -14 5 -31 10 -36 19 -19 165 -442 181 -527 8
-39 21 -70 35 -84 22 -22 31 -23 163 -23 90 0 150 4 167 12 l27 13 -8 315 c-9
381 -17 513 -30 516 -5 1 -41 -6 -80 -17z"/>
<path d="M4788 2919 c-16 -9 -18 -31 -18 -234 0 -140 4 -226 10 -230 6 -3 19
-3 30 0 19 6 20 15 20 225 0 255 -2 263 -42 239z"/>
<path d="M4863 2913 c-5 -10 -8 -115 -8 -233 l0 -215 25 0 25 0 0 230 c0 211
-1 230 -18 233 -9 2 -20 -4 -24 -15z"/>
<path d="M4035 3674 c-60 -20 -137 -42 -170 -50 -33 -9 -64 -19 -69 -24 -5 -5
15 -42 45 -87 136 -196 231 -382 284 -558 33 -110 60 -165 81 -165 41 0 209
23 231 31 l26 9 -5 108 c-5 89 -13 134 -52 266 -51 172 -74 233 -143 371 -48
97 -77 135 -102 134 -9 0 -65 -16 -126 -35z"/>
<path d="M3674 3559 c-3 -6 16 -43 44 -83 95 -132 191 -300 237 -416 25 -63
50 -119 56 -124 5 -6 9 -22 9 -38 0 -34 39 -115 59 -123 8 -3 23 3 34 13 18
18 18 21 1 78 -65 226 -232 550 -342 667 -36 37 -83 50 -98 26z"/>
<path d="M3583 3535 c-18 -8 -33 -21 -33 -29 0 -8 28 -49 63 -93 108 -133 233
-365 277 -513 35 -116 45 -132 83 -128 45 4 46 36 3 148 -20 51 -36 100 -36
110 0 10 -16 47 -36 82 -20 34 -42 78 -49 96 -21 48 -156 250 -201 299 -39 42
-39 42 -71 28z"/>
<path d="M3303 3355 c-3 -10 22 -52 69 -113 111 -143 141 -196 207 -352 62
-149 83 -182 102 -163 12 12 -37 167 -88 283 -55 125 -233 360 -273 360 -6 0
-13 -7 -17 -15z"/>
<path d="M3240 3247 c0 -13 11 -34 25 -47 64 -60 202 -300 245 -425 12 -37 22
-51 38 -53 28 -4 28 3 -9 106 -37 106 -100 215 -197 345 -74 97 -102 117 -102
74z"/>
<path d="M4433 2470 c-39 -16 -30 -33 22 -44 39 -8 59 5 50 33 -7 23 -33 26
-72 11z"/>
<path d="M4105 2407 c-4 -13 -5 -48 -3 -78 3 -51 5 -54 31 -57 43 -5 67 22 67
75 0 63 -13 83 -55 83 -28 0 -36 -5 -40 -23z"/>
<path d="M3971 2406 c-7 -9 -11 -41 -10 -86 2 -85 17 -100 74 -76 l36 15 -3
78 -3 78 -41 3 c-27 2 -45 -2 -53 -12z"/>
<path d="M3700 2381 c-15 -28 -13 -146 3 -159 25 -21 41 4 45 71 6 87 -21 137
-48 88z"/>
<path d="M3587 2364 c-11 -11 -8 -142 3 -149 6 -4 18 -1 26 6 21 17 16 142 -6
147 -9 1 -19 0 -23 -4z"/>
<path d="M2800 2264 c-14 -3 -79 -13 -145 -24 -66 -11 -156 -24 -200 -30 -44
-5 -97 -14 -117 -20 -82 -24 -19 -49 76 -31 34 6 104 16 156 21 52 6 109 14
125 19 17 5 68 12 115 15 97 6 186 26 183 41 -3 10 -145 16 -193 9z"/>
<path d="M5947 2802 c-28 -31 -57 -106 -57 -150 0 -53 24 -102 50 -102 22 0
27 15 33 96 2 29 14 70 25 93 31 59 29 81 -6 81 -16 0 -36 -8 -45 -18z"/>
<path d="M7070 2841 c-43 -25 -171 -28 -210 -6 -33 19 -97 19 -173 -1 -46 -12
-81 -30 -136 -72 -95 -74 -138 -141 -147 -233 -6 -59 -3 -73 21 -127 28 -63
87 -127 141 -155 107 -55 280 -82 348 -53 49 20 103 20 152 0 30 -13 57 -15
114 -10 141 11 283 103 340 220 29 60 29 200 -1 257 -33 65 -94 124 -164 158
-56 28 -80 33 -158 37 -79 4 -97 2 -127 -15z m192 -30 c65 -15 87 -26 134 -66
132 -113 149 -268 42 -389 -54 -61 -146 -111 -233 -128 -55 -10 -66 -9 -108
10 -33 15 -47 27 -47 40 0 39 26 47 150 44 112 -2 170 7 170 27 0 5 -62 7
-148 3 -82 -2 -165 -2 -186 2 l-36 7 27 23 c62 52 90 59 246 64 102 3 147 8
147 16 0 9 -35 11 -122 9 -68 -2 -267 -4 -443 -6 -220 -2 -326 -7 -340 -15
-26 -15 -26 -15 145 -17 106 -2 157 -7 190 -19 45 -17 80 -42 80 -58 0 -4 -79
-8 -176 -8 -136 0 -175 -3 -172 -12 3 -9 44 -15 139 -19 74 -3 146 -10 161
-16 61 -27 -13 -91 -90 -77 -191 33 -272 77 -322 176 -48 97 -38 173 35 269
29 38 60 64 105 89 58 31 74 35 140 35 71 0 77 -2 119 -35 l43 -35 -151 -7
c-154 -6 -181 -10 -181 -27 0 -5 54 -9 123 -8 122 0 124 0 185 -34 34 -18 62
-37 62 -41 0 -4 -100 -9 -222 -10 -166 -2 -222 -6 -226 -15 -3 -10 27 -13 126
-13 149 0 236 -20 277 -64 29 -31 41 -33 48 -6 3 11 12 20 20 20 8 0 17 -9 20
-20 8 -31 26 -24 75 27 l45 46 151 3 c83 2 154 4 159 4 4 0 7 9 7 21 0 19 -4
21 -42 15 -84 -12 -239 -18 -294 -11 -63 8 -69 23 -21 59 24 18 47 22 150 26
99 4 122 8 122 20 1 22 -22 27 -83 18 -30 -5 -95 -7 -145 -6 l-90 3 29 34 c33
40 81 71 109 71 11 0 55 -8 97 -19z"/>
<path d="M7942 2193 c-44 -64 -112 -137 -194 -211 -36 -32 -62 -94 -75 -182
-3 -19 -10 -40 -15 -47 -14 -17 -1 -33 28 -33 15 0 27 7 31 18 3 9 16 40 29
67 13 28 29 72 36 99 11 42 20 53 68 84 61 41 210 181 210 199 0 15 -49 73
-61 73 -5 0 -31 -30 -57 -67z"/>
<path d="M3953 5345 c-56 -24 -101 -126 -72 -161 8 -9 56 -38 109 -64 169 -84
333 -193 473 -316 107 -95 203 -154 248 -154 38 0 41 3 59 44 28 61 40 70 87
57 82 -23 196 -1 313 60 87 45 208 89 243 89 17 0 41 -7 51 -15 31 -23 100
-18 191 15 101 35 152 60 194 95 37 32 40 62 8 74 -13 5 -61 44 -106 87 -98
92 -98 92 -352 93 -91 1 -201 5 -245 10 -43 5 -126 15 -184 21 -58 6 -143 16
-190 22 -47 6 -204 12 -350 13 -239 2 -272 4 -334 24 -79 24 -99 25 -143 6z
m185 -81 c63 -23 136 -62 207 -109 315 -207 420 -255 562 -255 77 0 134 21
301 109 136 72 221 106 290 117 65 10 36 28 -45 28 -79 0 -122 -16 -288 -112
-60 -34 -126 -67 -146 -73 -19 -6 -78 -9 -130 -7 -79 3 -106 9 -173 37 -43 19
-111 55 -150 81 -39 26 -115 73 -169 104 -58 34 -95 62 -91 68 11 17 369 3
584 -23 139 -16 250 -22 445 -24 223 -1 265 -4 293 -19 25 -13 32 -23 32 -46
0 -40 -32 -61 -82 -54 -77 13 -164 -14 -341 -102 -104 -52 -180 -84 -200 -84
-17 -1 -43 -7 -57 -15 -32 -18 -140 -19 -205 -1 -120 33 -231 89 -325 165 -75
62 -135 98 -281 172 -124 63 -152 79 -134 79 3 0 50 -16 103 -36z"/>
<path d="M10693 4465 c-57 -8 -111 -16 -120 -19 -10 -3 -52 -10 -93 -16 -72
-10 -272 -72 -297 -93 -7 -5 -13 -19 -13 -31 0 -21 29 -113 54 -171 7 -16 19
-45 26 -62 8 -21 19 -33 31 -33 10 0 87 18 171 40 174 46 324 70 448 70 111 0
345 -32 438 -59 105 -32 111 -29 153 59 40 85 69 168 69 198 0 28 -19 37 -153
73 -95 25 -147 32 -342 44 -265 17 -240 17 -372 0z"/>
<path d="M11721 4301 c-10 -10 -27 -43 -36 -72 -10 -30 -33 -84 -51 -121 -19
-37 -34 -74 -34 -83 0 -19 76 -57 192 -96 118 -40 243 -49 338 -24 36 9 75 19
87 22 13 3 30 2 39 -1 15 -6 15 -8 -1 -26 -32 -35 -100 -50 -233 -50 -133 0
-185 12 -344 81 -84 37 -118 38 -118 6 0 -23 27 -57 46 -57 5 0 23 -7 39 -16
194 -104 417 -120 597 -43 36 16 71 29 77 29 20 0 24 49 7 75 -28 43 -183 159
-332 249 -78 47 -144 86 -147 86 -4 0 -29 13 -57 30 -49 29 -51 29 -69 11z"/>
<path d="M10755 4100 c-114 -8 -186 -22 -340 -67 -117 -34 -149 -61 -111 -92
12 -10 37 -5 123 22 175 56 274 71 473 71 127 0 200 -5 265 -18 50 -10 111
-22 137 -26 26 -5 56 -13 67 -19 47 -26 73 34 28 64 -46 30 -393 80 -505 73
-15 -1 -76 -4 -137 -8z"/>
<path d="M9668 4070 c-73 -49 -272 -234 -322 -301 -58 -77 -70 -100 -85 -164
-6 -27 -34 -120 -61 -205 -104 -331 -131 -422 -160 -539 -17 -67 -43 -163 -59
-214 -48 -150 -83 -288 -77 -303 7 -18 186 -20 204 -2 7 7 12 42 12 86 0 106
26 266 65 403 36 127 125 336 186 436 74 122 194 266 331 396 108 102 138 136
135 152 -18 71 -104 285 -115 285 -5 0 -29 -13 -54 -30z"/>
<path d="M10675 3785 c-191 -34 -275 -65 -275 -101 0 -26 29 -27 103 -1 126
43 188 54 362 62 89 3 138 0 258 -21 115 -20 151 -24 162 -14 39 32 -32 65
-185 86 -148 19 -274 16 -425 -11z"/>
<path d="M12130 3739 c0 -13 29 -52 73 -98 159 -166 225 -263 329 -478 63
-132 85 -190 108 -289 140 -590 63 -1064 -249 -1530 -137 -204 -273 -343 -479
-491 -219 -157 -470 -263 -732 -309 -189 -34 -538 -19 -716 30 -358 99 -588
227 -824 457 -150 147 -244 275 -361 493 -55 104 -61 146 -33 243 12 42 15 75
10 134 -5 51 -4 79 4 84 5 3 34 -7 63 -23 28 -16 77 -35 107 -42 77 -18 85
-23 105 -77 38 -101 118 -270 144 -303 15 -19 39 -53 53 -75 14 -22 65 -82
113 -132 191 -203 417 -335 705 -411 131 -34 141 -35 320 -36 197 0 251 7 415
54 276 79 580 282 735 490 54 74 147 224 189 308 116 232 165 600 116 877 -39
226 -153 485 -284 644 -137 167 -306 304 -488 395 -80 40 -101 44 -109 21 -9
-24 13 -42 95 -81 115 -55 207 -122 330 -240 192 -183 321 -411 387 -682 24
-94 27 -128 28 -287 0 -137 -4 -202 -17 -270 -57 -281 -197 -562 -366 -733
-207 -209 -471 -358 -731 -413 -136 -28 -388 -31 -525 -6 -202 38 -367 106
-536 223 -144 100 -218 170 -312 295 -84 110 -195 323 -204 389 -5 38 -4 40
21 40 21 0 30 -8 43 -37 104 -242 179 -358 320 -494 89 -86 255 -205 328 -234
22 -9 65 -29 95 -44 149 -76 485 -112 710 -76 280 46 580 215 767 435 179 208
281 428 338 726 19 100 19 167 -1 324 -24 191 -77 350 -176 524 -53 93 -83
132 -188 239 -126 131 -219 201 -354 272 -77 40 -96 43 -96 15 0 -14 12 -26
38 -38 20 -9 39 -20 40 -24 2 -5 14 -8 27 -8 12 0 28 -7 35 -15 6 -8 33 -26
58 -41 102 -59 288 -241 358 -351 79 -122 143 -267 179 -404 33 -130 35 -145
35 -302 0 -237 -29 -367 -130 -583 -111 -238 -237 -384 -458 -531 -94 -63
-282 -141 -430 -179 -91 -24 -110 -25 -302 -22 l-205 4 -121 41 c-208 71 -338
144 -476 266 -140 126 -298 357 -339 496 -12 39 -11 45 5 57 21 15 287 80 367
90 l55 6 32 -63 c53 -103 126 -193 211 -261 91 -72 177 -128 197 -128 7 0 44
-11 81 -25 49 -19 95 -27 173 -32 388 -22 714 201 851 582 27 77 32 107 37
212 7 193 -24 329 -107 467 -63 103 -116 164 -211 239 -119 95 -208 129 -230
88 -8 -16 -4 -24 22 -46 17 -14 61 -41 97 -60 49 -24 90 -58 159 -129 104
-107 146 -181 183 -321 25 -97 30 -281 10 -365 -34 -136 -129 -307 -217 -391
-69 -65 -202 -147 -276 -170 -245 -74 -384 -64 -605 42 -103 49 -229 168 -292
277 -24 41 -41 75 -39 76 1 2 23 14 47 28 34 20 50 24 70 18 14 -5 48 -11 75
-15 42 -6 57 -15 125 -78 82 -77 147 -113 251 -142 94 -25 221 -15 304 26 83
40 140 40 192 -2 32 -26 44 -29 74 -24 81 15 87 34 34 106 -54 74 -55 111 -8
206 l39 78 0 140 0 141 -39 79 c-51 103 -143 198 -239 245 -37 18 -70 30 -73
27 -14 -14 10 -46 49 -63 23 -10 76 -52 119 -92 67 -64 81 -84 117 -166 35
-80 41 -103 41 -162 0 -76 -19 -161 -45 -200 -27 -41 -37 -19 -33 76 4 119
-17 142 -98 104 -41 -19 -45 -54 -14 -107 21 -35 42 -108 55 -185 6 -40 5 -45
-33 -82 -49 -50 -56 -50 -259 -5 -87 19 -198 41 -248 49 -172 29 -199 37 -227
63 -15 14 -30 38 -33 53 -4 16 -15 30 -26 33 -22 6 -25 -13 -7 -42 9 -15 9
-23 -1 -34 -11 -14 -19 -13 -71 4 -53 18 -59 23 -64 55 -8 38 -25 43 -83 22
-27 -10 -38 -10 -54 1 -18 10 -23 10 -35 -6 -7 -10 -11 -25 -9 -33 14 -48 -10
-55 -525 -161 -86 -18 -191 15 -297 92 -78 57 -109 61 -106 14 16 -240 16
-249 -7 -340 -12 -49 -34 -112 -48 -138 -41 -76 -112 -129 -112 -84 0 7 18 38
40 70 42 63 74 140 92 220 14 66 6 234 -13 272 l-15 30 -94 -1 c-156 -1 -205
-28 -201 -111 5 -155 144 -562 195 -571 12 -3 41 18 85 62 78 77 75 78 131
-34 102 -205 321 -472 499 -608 95 -73 238 -164 306 -196 145 -69 201 -91 310
-126 462 -147 960 -101 1415 132 242 123 531 381 687 613 49 72 143 231 143
241 0 3 18 46 39 94 98 216 139 384 162 656 14 166 9 220 -37 453 -61 309
-134 484 -312 740 -81 117 -201 262 -240 290 -40 28 -72 28 -72 0z m-870
-1459 c0 -5 -7 -10 -15 -10 -8 0 -15 5 -15 10 0 6 7 10 15 10 8 0 15 -4 15
-10z m-1030 -169 c0 -6 -4 -13 -10 -16 -5 -3 -10 1 -10 9 0 9 5 16 10 16 6 0
10 -4 10 -9z m357 -102 c6 -6 35 -14 64 -19 53 -9 141 -27 229 -48 25 -6 76
-15 114 -21 120 -17 112 -50 -17 -72 -93 -16 -186 -1 -283 45 -103 49 -183
126 -130 126 6 0 17 -5 23 -11z m683 -74 c0 -16 -27 -32 -37 -22 -3 4 -3 13 0
22 8 20 37 20 37 0z m68 -47 c-3 -7 -11 -13 -18 -13 -7 0 -15 6 -17 13 -3 7 4
12 17 12 13 0 20 -5 18 -12z"/>
<path d="M9804 3709 c-53 -34 -192 -172 -258 -258 -99 -129 -216 -334 -275
-484 -43 -108 -88 -297 -106 -442 -18 -148 -15 -175 19 -175 22 0 24 6 34 78
6 42 14 104 17 138 14 154 109 433 206 609 83 149 144 227 298 380 105 104
131 135 131 157 0 16 -4 28 -8 28 -4 0 -30 -14 -58 -31z"/>
<path d="M10745 3165 c-86 -19 -142 -43 -165 -72 -39 -50 -11 -53 115 -13 51
16 102 23 189 25 94 3 122 7 135 20 15 15 14 18 -8 36 -19 16 -38 19 -115 18
-50 0 -118 -7 -151 -14z"/>
<path d="M10231 2829 c-53 -57 -134 -283 -135 -379 -1 -51 2 -65 14 -65 19 0
34 34 55 120 18 74 79 229 101 256 23 26 22 89 -1 89 -8 0 -23 -10 -34 -21z"/>
<path d="M8210 2742 c-5 -21 -28 -76 -50 -121 -22 -45 -40 -86 -40 -90 0 -17
63 -62 72 -53 13 13 62 268 54 287 -10 26 -25 16 -36 -23z"/>
<path d="M9531 2139 c-58 -11 -64 -19 -56 -68 12 -71 69 -82 63 -12 -3 33 -1
36 25 39 25 3 30 -2 44 -37 22 -56 43 -54 43 4 0 40 -4 47 -32 65 -18 11 -35
19 -38 19 -3 -1 -25 -5 -49 -10z"/>
<path d="M5310 205 l0 -167 105 4 c99 3 107 5 132 31 36 35 39 100 6 127 -20
16 -20 18 -5 33 24 24 21 83 -6 109 -19 20 -35 23 -127 26 l-105 4 0 -167z
m181 89 c23 -27 -1 -49 -60 -52 l-51 -3 0 35 0 36 49 0 c32 0 53 -5 62 -16z
m10 -125 c25 -39 -6 -69 -71 -69 l-48 0 -4 41 c-2 22 -1 42 2 45 10 12 112 -3
121 -17z"/>
<path d="M5630 205 l0 -165 30 0 30 0 0 122 c0 67 2 119 5 116 3 -3 14 -40 26
-84 43 -169 36 -154 73 -154 l34 0 29 117 28 118 5 -115 5 -115 30 0 30 0 0
160 0 160 -49 0 -49 0 -32 -120 c-36 -136 -28 -140 -75 38 l-23 87 -49 0 -48
0 0 -165z"/>
<path d="M6001 353 c0 -10 19 -83 42 -163 42 -145 43 -145 74 -148 34 -3 33
-7 66 165 6 35 14 63 18 63 3 0 11 -30 18 -67 31 -167 30 -164 64 -161 31 3
32 3 74 148 51 179 51 180 13 180 -32 0 -28 10 -68 -150 l-19 -75 -17 80 c-31
146 -28 140 -66 140 l-35 0 -17 -85 c-31 -147 -28 -146 -58 -25 -27 109 -27
110 -59 113 -25 3 -31 0 -30 -15z"/>
<path d="M6574 357 c-2 -7 -3 -80 -2 -162 l3 -150 33 -3 32 -3 0 65 0 66 49 0
c58 0 64 -6 71 -75 5 -49 5 -50 42 -53 l37 -3 -5 38 c-12 89 -16 103 -30 111
-13 7 -12 11 6 27 14 12 20 31 20 57 0 52 -13 74 -51 87 -46 16 -198 15 -205
-2z m190 -69 c20 -33 -4 -53 -68 -56 l-56 -3 0 41 0 41 56 -3 c41 -2 60 -8 68
-20z"/>
<path d="M7325 347 c-37 -17 -56 -55 -62 -127 -11 -115 33 -186 113 -184 74 2
114 58 114 159 0 122 -76 192 -165 152z m85 -68 c13 -24 13 -145 0 -170 -14
-25 -56 -25 -70 0 -5 11 -10 51 -10 90 0 57 4 75 20 91 22 22 45 18 60 -11z"/>
<path d="M7026 283 c-4 -38 -10 -76 -12 -85 -4 -15 1 -18 30 -18 19 0 38 5 41
10 9 15 42 12 59 -6 9 -8 16 -29 16 -44 0 -56 -74 -76 -94 -25 -3 9 -18 15
-36 15 -28 0 -31 -3 -25 -22 14 -46 51 -72 102 -72 59 0 98 24 113 70 26 77
-19 139 -101 139 -49 0 -56 6 -43 39 5 12 21 16 70 16 62 0 64 1 64 25 0 25
-1 25 -89 25 l-89 0 -6 -67z"/>
</g>
</svg>
